<svg width="59" height="56" viewBox="0 0 59 56" fill="none" xmlns="http://www.w3.org/2000/svg">
<path d="M28.2747 4.9429C29.0473 3.62493 30.9527 3.62493 31.7253 4.9429L37.9936 15.6346C38.2756 16.1155 38.7455 16.457 39.2901 16.5765L51.3954 19.2341C52.8877 19.5617 53.4765 21.3737 52.4618 22.5159L44.2304 31.7812C43.8601 32.198 43.6806 32.7505 43.7352 33.3053L44.9485 45.6395C45.098 47.1599 43.5566 48.2798 42.1568 47.6677L30.8013 42.7024C30.2904 42.479 29.7096 42.479 29.1987 42.7024L17.8432 47.6677C16.4434 48.2798 14.902 47.1599 15.0515 45.6395L16.2648 33.3053C16.3194 32.7505 16.1399 32.198 15.7696 31.7812L7.53823 22.5159C6.52355 21.3737 7.11232 19.5617 8.60455 19.2341L20.7099 16.5765C21.2545 16.457 21.7244 16.1155 22.0064 15.6346L28.2747 4.9429Z" fill="#E8E8E8"/>
</svg>
